<!--?xml version="1.0" standalone="no"?-->
              <svg id="sw-js-blob-svg" viewBox="0 0 100 100" xmlns="http://www.w3.org/2000/svg" version="1.1">
                    <defs> 
                        <linearGradient id="sw-gradient" x1="0" x2="1" y1="1" y2="0">
                            <stop id="stop1" stop-color="rgba(130, 183, 209, 1)" offset="0%"></stop>
                            <stop id="stop2" stop-color="rgba(21.767, 64.294, 85.557, 1)" offset="100%"></stop>
                        </linearGradient>
                    </defs>
                <path fill="url(#sw-gradient)" d="M19.6,-23.6C24.5,-19.2,27.2,-12.2,30.1,-4.1C33,4.1,36.2,13.4,33.6,20.8C31,28.2,22.6,33.7,14.3,34.9C6,36,-2.4,32.7,-11.6,30.1C-20.9,27.5,-31.1,25.7,-35.3,19.7C-39.6,13.8,-37.8,3.7,-36,-6.4C-34.3,-16.4,-32.5,-26.5,-26.4,-30.7C-20.4,-34.9,-10.2,-33.3,-1.5,-31.6C7.3,-29.8,14.6,-28,19.6,-23.6Z" width="100%" height="100%" transform="translate(50 50)" stroke-width="0" style="transition: all 0.3s ease 0s;" stroke="url(#sw-gradient)"></path>
              </svg>